<svg width="145" height="48" viewBox="0 0 145 48" fill="none" xmlns="http://www.w3.org/2000/svg">
<path d="M0 6.80055L1.03727 0H42.6876L41.6503 6.80055H26.4902L20.4262 48H9.09604L15.1601 6.80055H0Z" fill="white"/>
<path d="M48.9418 0H83.7301L82.6929 6.80055H59.3144L54.2079 41.1994H78.863L77.9055 48H41.8405L48.9418 0ZM59.474 26.1458C59.8464 25.4415 60.2985 24.6933 60.8304 23.901C61.4156 23.1087 62.0805 22.3824 62.8252 21.7221C63.5699 21.0619 64.3944 20.5337 65.2987 20.1376C66.2561 19.6974 67.32 19.4773 68.4903 19.4773H78.1448L77.1076 26.1458H59.474Z" fill="white"/>
<path d="M89.546 0H103.988L111.169 37.0399L111.329 39.4168L112.366 37.0399L130.478 0H145L143.324 48H132.872L135.106 11.8184L135.345 8.64925L133.909 11.8184L116.036 47.3398H104.307L96.8069 11.7524L96.3282 8.64925L95.6101 11.7524L87.3119 48H76.8595L89.546 0Z" fill="white"/>
</svg>
