<svg width="622" height="556" viewBox="0 0 622 556" fill="none" xmlns="http://www.w3.org/2000/svg">
<path d="M31 474H191.086C191.591 474 192 474.409 192 474.914V474.914C192 503.68 215.32 527 244.086 527H377.914C406.68 527 430 503.68 430 474.914C430 474.409 430.409 474 430.914 474H591" stroke="#307CD9" stroke-width="24" stroke-linecap="round"/>
<path d="M228 23V93C228 93.5523 228.448 94 229 94H392.5C393.052 94 393.5 93.5523 393.5 93V23" stroke="#307CD9" stroke-width="24" stroke-linecap="round"/>
<path d="M248 102V195M374 102V195" stroke="#307CD9" stroke-width="24"/>
<path d="M218 197V257L249.205 305.541C249.389 305.827 249.706 306 250.046 306H371.954C372.294 306 372.611 305.827 372.795 305.541L404 257V197C404 196.448 403.552 196 403 196H219C218.448 196 218 196.448 218 197Z" stroke="#307CD9" stroke-width="24"/>
<path d="M279 314V451.612C279 451.862 279.093 452.102 279.262 452.287L310.262 486.193C310.658 486.626 311.342 486.626 311.738 486.193L342.738 452.287C342.907 452.102 343 451.862 343 451.612V314" stroke="#307CD9" stroke-width="24"/>
<path d="M219 250.5H353" stroke="#307CD9" stroke-width="24" stroke-linecap="round"/>
<line x1="338.698" y1="355.957" x2="283.698" y2="392.957" stroke="#307CD9" stroke-width="24"/>
<line x1="338.698" y1="405.957" x2="283.698" y2="442.957" stroke="#307CD9" stroke-width="24"/>
</svg>
