<svg width="622" height="556" viewBox="0 0 622 556" fill="none" xmlns="http://www.w3.org/2000/svg">
<path d="M31 474H271.036C271.569 474 272 474.431 272 474.964V488C272 509.539 289.461 527 311 527V527V527C332.815 527 350.5 509.315 350.5 487.5V475C350.5 474.448 350.948 474 351.5 474H591.5" stroke="#307CD9" stroke-width="24" stroke-linecap="round"/>
<path d="M153 23V59C153 59.5523 153.448 60 154 60H468C468.552 60 469 59.5523 469 59V23" stroke="#307CD9" stroke-width="24" stroke-linecap="round"/>
<path d="M218 63V90L249.205 138.541C249.389 138.827 249.706 139 250.046 139H371.954C372.294 139 372.611 138.827 372.795 138.541L404 90V63C404 62.4477 403.552 62 403 62H219C218.448 62 218 62.4477 218 63Z" stroke="#307CD9" stroke-width="24"/>
<path d="M279 141V165.612C279 165.862 279.093 166.102 279.262 166.287L310.262 200.193C310.658 200.626 311.342 200.626 311.738 200.193L342.738 166.287C342.907 166.102 343 165.862 343 165.612V141" stroke="#307CD9" stroke-width="24"/>
<path d="M311 237L310.451 238.345C304.403 253.164 304.525 269.785 310.792 284.512L311 285L311.385 285.923C317.538 300.692 317.538 317.308 311.385 332.077L311 333L310.099 335.254C304.267 349.834 304.383 366.119 310.423 380.614L311 382L311.208 382.488C317.475 397.215 317.597 413.836 311.549 428.655L311 430L310.615 430.923C304.462 445.692 304.462 462.308 310.615 477.077L311 478" stroke="#307CD9" stroke-width="24" stroke-linecap="round"/>
</svg>
