<svg width="622" height="556" viewBox="0 0 622 556" fill="none" xmlns="http://www.w3.org/2000/svg">
<path d="M153 23V93C153 93.5523 153.448 94 154 94H468C468.552 94 469 93.5523 469 93V23" stroke="#307CD9" stroke-width="24" stroke-linecap="round"/>
<path d="M218 99V219L249.205 267.541C249.389 267.827 249.706 268 250.046 268H371.954C372.294 268 372.611 267.827 372.795 267.541L404 219V99C404 98.4477 403.552 98 403 98H219C218.448 98 218 98.4477 218 99Z" stroke="#307CD9" stroke-width="24"/>
<path d="M279 267V291.612C279 291.862 279.093 292.102 279.262 292.287L310.262 326.193C310.658 326.626 311.342 326.626 311.738 326.193L342.738 292.287C342.907 292.102 343 291.862 343 291.612V267" stroke="#307CD9" stroke-width="24"/>
<path d="M42 527H109M166.5 527H311H455.5M580 527H513" stroke="#307CD9" stroke-width="24" stroke-linecap="round"/>
<path d="M269 113V181M354 113V181" stroke="#307CD9" stroke-width="24" stroke-linecap="round"/>
<path d="M308.714 521.856L143.475 428.807M51.4748 377L109.475 409.661" stroke="#307CD9" stroke-width="24" stroke-linecap="round"/>
<path d="M313.475 521.856L478.714 428.807M570.714 377L512.714 409.661" stroke="#307CD9" stroke-width="24" stroke-linecap="round"/>
<path d="M302.439 518.292L251.452 432M203 350L231.362 398" stroke="#307CD9" stroke-width="24" stroke-linecap="round"/>
<path d="M319 518.292L369.988 432M418.44 350L390.078 398" stroke="#307CD9" stroke-width="24" stroke-linecap="round"/>
</svg>
