<svg width="622" height="556" viewBox="0 0 622 556" fill="none" xmlns="http://www.w3.org/2000/svg">
<path d="M153 23V74H469V23" stroke="#307CD9" stroke-width="24" stroke-linecap="round"/>
<path d="M234 148V218C234 218.552 234.448 219 235 219H387C387.552 219 388 218.552 388 218V148" stroke="#307CD9" stroke-width="24" stroke-linecap="round"/>
<path d="M152 81L183.23 147.425C183.395 147.776 183.747 148 184.135 148H437.954C438.294 148 438.611 147.827 438.795 147.541L470 81" stroke="#307CD9" stroke-width="24"/>
<path d="M279 220V455.612C279 455.862 279.093 456.102 279.262 456.287L310.262 490.193C310.658 490.626 311.342 490.626 311.738 490.193L342.738 456.287C342.907 456.102 343 455.862 343 455.612V220" stroke="#307CD9" stroke-width="24"/>
<path d="M311 527H308.5C264.87 527 229.5 491.63 229.5 448V296C229.5 295.448 229.052 295 228.5 295H42M312 527H314.5C358.13 527 393.5 491.63 393.5 448V296C393.5 295.448 393.948 295 394.5 295H581" stroke="#307CD9" stroke-width="24" stroke-linecap="round"/>
</svg>
