<svg width="622" height="556" viewBox="0 0 622 556" fill="none" xmlns="http://www.w3.org/2000/svg">
<circle cx="311" cy="278" r="259" stroke="#307CD9" stroke-width="24"/>
<circle cx="311" cy="278" r="211" stroke="#307CD9" stroke-width="24"/>
<circle cx="311" cy="278" r="58" stroke="#307CD9" stroke-width="24"/>
<path d="M333.5 225C352.5 185 373.5 144 417 99.5" stroke="#307CD9" stroke-width="24"/>
<path d="M292.5 326C273.5 366 252.5 407 209 451.5" stroke="#307CD9" stroke-width="24"/>
<path d="M351.081 236.508C383.801 206.668 418.75 176.659 475.851 151.922" stroke="#307CD9" stroke-width="24"/>
<path d="M274.92 314.492C242.2 344.332 207.251 374.341 150.15 399.078" stroke="#307CD9" stroke-width="24"/>
<path d="M363.027 253.871C404.621 238.676 448.343 224.171 510.56 222.948" stroke="#307CD9" stroke-width="24"/>
<path d="M262.973 297.129C221.379 312.324 177.657 326.829 115.44 328.052" stroke="#307CD9" stroke-width="24"/>
<path d="M367.495 274.613C411.74 276.453 457.687 279.742 515.657 302.37" stroke="#307CD9" stroke-width="24"/>
<path d="M258.504 276.387C214.26 274.547 168.312 271.258 110.342 248.63" stroke="#307CD9" stroke-width="24"/>
<path d="M363.608 295.731C403.709 314.518 444.82 335.299 489.551 378.562" stroke="#307CD9" stroke-width="24"/>
<path d="M262.391 255.269C222.29 236.483 181.179 215.701 136.448 172.439" stroke="#307CD9" stroke-width="24"/>
<path d="M352.497 313.056C382.772 345.374 413.245 379.919 438.744 436.684" stroke="#307CD9" stroke-width="24"/>
<path d="M273.502 237.945C243.227 205.627 212.754 171.082 187.255 114.316" stroke="#307CD9" stroke-width="24"/>
<path d="M334.101 325.752C348.858 367.504 362.902 411.376 363.471 473.603" stroke="#307CD9" stroke-width="24"/>
<path d="M291.898 225.248C277.142 183.496 263.097 139.624 262.528 77.3975" stroke="#307CD9" stroke-width="24"/>
<path d="M313.754 329.997C311.807 374.238 308.406 420.177 285.637 478.092" stroke="#307CD9" stroke-width="24"/>
<path d="M312.246 221.003C314.193 176.763 317.594 130.823 340.363 72.9087" stroke="#307CD9" stroke-width="24"/>
</svg>
